<svg xmlns="http://www.w3.org/2000/svg" viewBox="0 0 220 220" width="220" height="220">
  <!-- Tronc -->
  <rect x="105" y="120" width="10" height="60" fill="#4CAF50" />

  <!-- Branches principales -->
  <line x1="110" y1="120" x2="60" y2="80" stroke="#4CAF50" stroke-width="6" />
  <line x1="110" y1="120" x2="160" y2="80" stroke="#4CAF50" stroke-width="6" />
  <line x1="110" y1="120" x2="110" y2="60" stroke="#4CAF50" stroke-width="6" />

  <!-- Feuilles en forme de maillons -->
  <circle cx="60" cy="80" r="22" fill="none" stroke="#2196F3" stroke-width="6" />
  <circle cx="160" cy="80" r="22" fill="none" stroke="#2196F3" stroke-width="6" />
  <circle cx="110" cy="40" r="22" fill="none" stroke="#2196F3" stroke-width="6" />

  <!-- Petits détails de maillons internes -->
  <path d="M50 80 a10 10 0 0 1 20 0 a10 10 0 0 1 -20 0" 
        fill="none" stroke="#2196F3" stroke-width="3" />
  <path d="M150 80 a10 10 0 0 1 20 0 a10 10 0 0 1 -20 0" 
        fill="none" stroke="#2196F3" stroke-width="3" />
  <path d="M100 40 a10 10 0 0 1 20 0 a10 10 0 0 1 -20 0" 
        fill="none" stroke="#2196F3" stroke-width="3" />
</svg>
